{
  "accessors": [
    {
      "bufferView": 2,
      "componentType": 5126,
      "count": 1565,
      "max": [
        0.6821413636207581,
        0.6956272125244141,
        0.406646192073822
      ],
      "min": [
        -0.6881309151649475,
        -0.695847749710083,
        -0.4334222078323364
      ],
      "type": "VEC3"
    },
    {
      "bufferView": 2,
      "byteOffset": 18780,
      "componentType": 5126,
      "count": 1565,
      "max": [
        0.9999785423278809,
        0.9976989030838013,
        0.997464656829834
      ],
      "min": [
        -0.9999412298202515,
        -0.9965490102767944,
        -0.9989328980445862
      ],
      "type": "VEC3"
    },
    {
      "bufferView": 3,
      "componentType": 5126,
      "count": 1565,
      "max": [
        0.9996079802513123,
        0.9999875426292419,
        0.9999552965164185,
        1.0
      ],
      "min": [
        -0.9998353719711304,
        -0.999995768070221,
        -0.9998446106910706,
        1.0
      ],
      "type": "VEC4"
    },
    {
      "bufferView": 1,
      "componentType": 5126,
      "count": 1565,
      "max": [
        0.9908850789070129,
        0.9407394528388977
      ],
      "min": [
        0.0024224002845585346,
        0.0024156328290700912
      ],
      "type": "VEC2"
    },
    {
      "bufferView": 0,
      "componentType": 5125,
      "count": 7434,
      "type": "SCALAR"
    },
    {
      "bufferView": 2,
      "byteOffset": 37560,
      "componentType": 5126,
      "count": 714,
      "max": [
        0.11999805271625519,
        0.5957829356193542,
        0.11366288363933563
      ],
      "min": [
        -0.12715111672878265,
        -0.38327792286872864,
        -0.12566326558589935
      ],
      "type": "VEC3"
    },
    {
      "bufferView": 2,
      "byteOffset": 46128,
      "componentType": 5126,
      "count": 714,
      "max": [
        0.99838787317276,
        0.9977872371673584,
        0.998203694820404
      ],
      "min": [
        -0.9989208579063416,
        -0.9997938871383667,
        -0.9950138926506042
      ],
      "type": "VEC3"
    },
    {
      "bufferView": 3,
      "byteOffset": 25040,
      "componentType": 5126,
      "count": 714,
      "max": [
        0.995911717414856,
        0.9999067783355713,
        0.9509682059288025,
        1.0
      ],
      "min": [
        -0.9934684038162231,
        -0.9985997080802917,
        -0.9608632922172546,
        1.0
      ],
      "type": "VEC4"
    },
    {
      "bufferView": 1,
      "byteOffset": 12520,
      "componentType": 5126,
      "count": 714,
      "max": [
        0.995694100856781,
        0.9975754618644714
      ],
      "min": [
        0.002523683477193117,
        0.00241218158043921
      ],
      "type": "VEC2"
    },
    {
      "bufferView": 0,
      "byteOffset": 29736,
      "componentType": 5125,
      "count": 2892,
      "type": "SCALAR"
    }
  ],
  "asset": {
    "extras": {
      "author": "Batuhan13 (https://sketchfab.com/Batuhan13)",
      "license": "CC-BY-4.0 (http://creativecommons.org/licenses/by/4.0/)",
      "source": "https://sketchfab.com/3d-models/pumpkin-cc77931e16b740bf9c701ce0f82251ad",
      "title": "Pumpkin"
    },
    "generator": "Sketchfab-12.65.0",
    "version": "2.0"
  },
  "bufferViews": [
    {
      "buffer": 0,
      "byteLength": 41304,
      "name": "floatBufferViews",
      "target": 34963
    },
    {
      "buffer": 0,
      "byteLength": 18232,
      "byteOffset": 41304,
      "byteStride": 8,
      "name": "floatBufferViews",
      "target": 34962
    },
    {
      "buffer": 0,
      "byteLength": 54696,
      "byteOffset": 59536,
      "byteStride": 12,
      "name": "floatBufferViews",
      "target": 34962
    },
    {
      "buffer": 0,
      "byteLength": 36464,
      "byteOffset": 114232,
      "byteStride": 16,
      "name": "floatBufferViews",
      "target": 34962
    }
  ],
  "buffers": [
    {
      "byteLength": 150696,
      "uri": "scene.bin"
    }
  ],
  "images": [
    {
      "uri": "textures/Pumpkin_baseColor.png"
    },
    {
      "uri": "textures/Pumpkin_metallicRoughness.png"
    },
    {
      "uri": "textures/Pumpkin_normal.png"
    }
  ],
  "materials": [
    {
      "doubleSided": true,
      "name": "Pumpkin",
      "normalTexture": {
        "index": 2
      },
      "pbrMetallicRoughness": {
        "baseColorTexture": {
          "index": 0
        },
        "metallicRoughnessTexture": {
          "index": 1
        },
        "roughnessFactor": 0.4346969604492188
      }
    }
  ],
  "meshes": [
    {
      "name": "1_low_Pumpkin_0",
      "primitives": [
        {
          "attributes": {
            "NORMAL": 1,
            "POSITION": 0,
            "TANGENT": 2,
            "TEXCOORD_0": 3
          },
          "indices": 4,
          "material": 0,
          "mode": 4
        }
      ]
    },
    {
      "name": "2_low_Pumpkin_0",
      "primitives": [
        {
          "attributes": {
            "NORMAL": 6,
            "POSITION": 5,
            "TANGENT": 7,
            "TEXCOORD_0": 8
          },
          "indices": 9,
          "material": 0,
          "mode": 4
        }
      ]
    }
  ],
  "nodes": [
    {
      "children": [
        1
      ],
      "matrix": [
        1.0,
        0.0,
        0.0,
        0.0,
        0.0,
        2.220446049250313e-16,
        -1.0,
        0.0,
        0.0,
        1.0,
        2.220446049250313e-16,
        0.0,
        0.0,
        0.0,
        0.0,
        1.0
      ],
      "name": "Sketchfab_model"
    },
    {
      "children": [
        2
      ],
      "matrix": [
        1.0,
        0.0,
        0.0,
        0.0,
        0.0,
        0.0,
        1.0,
        0.0,
        0.0,
        -1.0,
        0.0,
        0.0,
        0.0,
        0.0,
        0.0,
        1.0
      ],
      "name": "pumpkinL.fbx"
    },
    {
      "children": [
        3,
        5
      ],
      "name": "RootNode"
    },
    {
      "children": [
        4
      ],
      "matrix": [
        100.0,
        0.0,
        0.0,
        0.0,
        0.0,
        -1.629206793918314e-05,
        -99.99999999999868,
        0.0,
        0.0,
        99.99999999999868,
        -1.629206793918314e-05,
        0.0,
        0.0,
        0.0,
        0.0,
        1.0
      ],
      "name": "1_low"
    },
    {
      "mesh": 0,
      "name": "1_low_Pumpkin_0"
    },
    {
      "children": [
        6
      ],
      "matrix": [
        100.0,
        0.0,
        0.0,
        0.0,
        0.0,
        99.99999999999866,
        1.6292067073209114e-05,
        0.0,
        0.0,
        -1.6292067073209114e-05,
        99.99999999999866,
        0.0,
        0.0,
        0.0,
        0.0,
        1.0
      ],
      "name": "2_low"
    },
    {
      "mesh": 1,
      "name": "2_low_Pumpkin_0"
    }
  ],
  "samplers": [
    {
      "magFilter": 9729,
      "minFilter": 9987,
      "wrapS": 10497,
      "wrapT": 10497
    }
  ],
  "scene": 0,
  "scenes": [
    {
      "name": "Sketchfab_Scene",
      "nodes": [
        0
      ]
    }
  ],
  "textures": [
    {
      "sampler": 0,
      "source": 0
    },
    {
      "sampler": 0,
      "source": 1
    },
    {
      "sampler": 0,
      "source": 2
    }
  ]
}
